<svg width="32" height="32" viewBox="0 0 32 32" fill="none" xmlns="http://www.w3.org/2000/svg">
<path fill-rule="evenodd" clip-rule="evenodd" d="M13.75 11C13.75 9.75736 14.7574 8.75 16 8.75C17.2426 8.75 18.25 9.75736 18.25 11C18.25 12.2426 17.2426 13.25 16 13.25C14.7574 13.25 13.75 12.2426 13.75 11ZM16 7.25C13.9289 7.25 12.25 8.92893 12.25 11C12.25 13.0711 13.9289 14.75 16 14.75C18.0711 14.75 19.75 13.0711 19.75 11C19.75 8.92893 18.0711 7.25 16 7.25ZM16.1675 16.0824C11.2376 16.0824 7.25 20.07 7.25 24.9999C7.25 25.4142 7.58579 25.7499 8 25.7499H24.3351C24.7493 25.7499 25.0851 25.4142 25.0851 24.9999C25.0851 20.07 21.0975 16.0824 16.1675 16.0824ZM16.1675 17.5824C20.0158 17.5824 23.1727 20.5017 23.5478 24.2499H8.78731C9.1624 20.5017 12.3192 17.5824 16.1675 17.5824Z" fill="black"/>
</svg>
