<svg width="32" height="32" viewBox="0 0 32 32" fill="none" xmlns="http://www.w3.org/2000/svg">
<path fill-rule="evenodd" clip-rule="evenodd" d="M16 16C17.1046 16 18 15.1046 18 14C18 12.8954 17.1046 12 16 12C14.8954 12 14 12.8954 14 14C14 15.1046 14.8954 16 16 16Z" fill="black"/>
<path d="M16.7094 24.2264C16.4344 24.5124 16.1937 24.7564 16 24.9499C15.8063 24.7564 15.5656 24.5124 15.2906 24.2264C14.5499 23.4563 13.5643 22.386 12.5808 21.1823C11.5949 19.9758 10.6242 18.651 9.90354 17.371C9.17155 16.0709 8.75 14.9073 8.75 14C8.75 9.99594 11.9959 6.75 16 6.75C20.0041 6.75 23.25 9.99594 23.25 14C23.25 14.9073 22.8284 16.0709 22.0965 17.371C21.3758 18.651 20.4051 19.9758 19.4192 21.1823C18.4357 22.386 17.4501 23.4563 16.7094 24.2264Z" stroke="black" stroke-width="1.5"/>
</svg>
